<mxfile host="app.diagrams.net" modified="2023-09-05T14:23:52.412Z" agent="Mozilla/5.0 (Macintosh; Intel Mac OS X 10_15_7) AppleWebKit/537.36 (KHTML, like Gecko) Chrome/116.0.0.0 Safari/537.36" etag="ACKApGQGICH-LRxrr9Pl" version="21.7.2" type="github">
  <diagram name="Page-1" id="e7e014a7-5840-1c2e-5031-d8a46d1fe8dd">
    <mxGraphModel dx="1100" dy="822" grid="1" gridSize="10" guides="1" tooltips="1" connect="1" arrows="1" fold="1" page="1" pageScale="1" pageWidth="1169" pageHeight="826" background="none" math="0" shadow="0">
      <root>
        <mxCell id="0" />
        <mxCell id="1" parent="0" />
        <mxCell id="IbHiwmiNJRmiyXheCo9D-41" value="" style="ellipse;whiteSpace=wrap;html=1;" vertex="1" parent="1">
          <mxGeometry x="30" y="320" width="120" height="80" as="geometry" />
        </mxCell>
        <mxCell id="IbHiwmiNJRmiyXheCo9D-42" value="Elevator" style="text;html=1;strokeColor=none;fillColor=none;align=center;verticalAlign=middle;whiteSpace=wrap;rounded=0;" vertex="1" parent="1">
          <mxGeometry x="60" y="345" width="60" height="30" as="geometry" />
        </mxCell>
        <mxCell id="IbHiwmiNJRmiyXheCo9D-43" value="" style="ellipse;whiteSpace=wrap;html=1;" vertex="1" parent="1">
          <mxGeometry x="370" y="320" width="120" height="80" as="geometry" />
        </mxCell>
        <mxCell id="IbHiwmiNJRmiyXheCo9D-44" value="" style="ellipse;whiteSpace=wrap;html=1;" vertex="1" parent="1">
          <mxGeometry x="370" y="70" width="120" height="80" as="geometry" />
        </mxCell>
        <mxCell id="IbHiwmiNJRmiyXheCo9D-45" value="" style="ellipse;whiteSpace=wrap;html=1;" vertex="1" parent="1">
          <mxGeometry x="800" y="80" width="120" height="80" as="geometry" />
        </mxCell>
        <mxCell id="IbHiwmiNJRmiyXheCo9D-46" value="Parking Spot 1" style="text;html=1;strokeColor=none;fillColor=none;align=center;verticalAlign=middle;whiteSpace=wrap;rounded=0;" vertex="1" parent="1">
          <mxGeometry x="400" y="345" width="60" height="30" as="geometry" />
        </mxCell>
        <mxCell id="IbHiwmiNJRmiyXheCo9D-47" value="Parking Spot 2" style="text;html=1;strokeColor=none;fillColor=none;align=center;verticalAlign=middle;whiteSpace=wrap;rounded=0;" vertex="1" parent="1">
          <mxGeometry x="400" y="95" width="60" height="30" as="geometry" />
        </mxCell>
        <mxCell id="IbHiwmiNJRmiyXheCo9D-48" value="Parking Booth" style="text;html=1;strokeColor=none;fillColor=none;align=center;verticalAlign=middle;whiteSpace=wrap;rounded=0;" vertex="1" parent="1">
          <mxGeometry x="830" y="105" width="60" height="30" as="geometry" />
        </mxCell>
        <mxCell id="IbHiwmiNJRmiyXheCo9D-50" value="" style="endArrow=classic;startArrow=classic;html=1;rounded=0;" edge="1" parent="1">
          <mxGeometry width="50" height="50" relative="1" as="geometry">
            <mxPoint x="180" y="360" as="sourcePoint" />
            <mxPoint x="340" y="360" as="targetPoint" />
          </mxGeometry>
        </mxCell>
        <mxCell id="IbHiwmiNJRmiyXheCo9D-51" value="" style="endArrow=classic;html=1;rounded=0;" edge="1" parent="1">
          <mxGeometry width="50" height="50" relative="1" as="geometry">
            <mxPoint x="430" y="290" as="sourcePoint" />
            <mxPoint x="429.5" y="180" as="targetPoint" />
          </mxGeometry>
        </mxCell>
        <mxCell id="IbHiwmiNJRmiyXheCo9D-52" value="" style="endArrow=classic;html=1;rounded=0;" edge="1" parent="1">
          <mxGeometry width="50" height="50" relative="1" as="geometry">
            <mxPoint x="550" y="119.5" as="sourcePoint" />
            <mxPoint x="700" y="119.5" as="targetPoint" />
          </mxGeometry>
        </mxCell>
        <mxCell id="IbHiwmiNJRmiyXheCo9D-53" value="Project Garage Zero (PGZ)&amp;nbsp;" style="text;strokeColor=none;fillColor=none;html=1;fontSize=24;fontStyle=1;verticalAlign=middle;align=center;" vertex="1" parent="1">
          <mxGeometry x="10" y="10" width="370" height="40" as="geometry" />
        </mxCell>
        <mxCell id="IbHiwmiNJRmiyXheCo9D-54" value="Location" style="shape=table;startSize=30;container=1;collapsible=0;childLayout=tableLayout;fixedRows=1;rowLines=0;fontStyle=0;strokeColor=default;fontSize=16;" vertex="1" parent="1">
          <mxGeometry x="40" y="450" width="230" height="250" as="geometry" />
        </mxCell>
        <mxCell id="IbHiwmiNJRmiyXheCo9D-55" value="" style="shape=tableRow;horizontal=0;startSize=0;swimlaneHead=0;swimlaneBody=0;top=0;left=0;bottom=0;right=0;collapsible=0;dropTarget=0;fillColor=none;points=[[0,0.5],[1,0.5]];portConstraint=eastwest;strokeColor=inherit;fontSize=16;" vertex="1" parent="IbHiwmiNJRmiyXheCo9D-54">
          <mxGeometry y="30" width="230" height="40" as="geometry" />
        </mxCell>
        <mxCell id="IbHiwmiNJRmiyXheCo9D-56" value="name" style="shape=partialRectangle;html=1;whiteSpace=wrap;connectable=0;fillColor=none;top=0;left=0;bottom=0;right=0;overflow=hidden;pointerEvents=1;strokeColor=inherit;fontSize=16;" vertex="1" parent="IbHiwmiNJRmiyXheCo9D-55">
          <mxGeometry width="80" height="40" as="geometry">
            <mxRectangle width="80" height="40" as="alternateBounds" />
          </mxGeometry>
        </mxCell>
        <mxCell id="IbHiwmiNJRmiyXheCo9D-57" value="String" style="shape=partialRectangle;html=1;whiteSpace=wrap;connectable=0;fillColor=none;top=0;left=0;bottom=0;right=0;align=left;spacingLeft=6;overflow=hidden;strokeColor=inherit;fontSize=16;" vertex="1" parent="IbHiwmiNJRmiyXheCo9D-55">
          <mxGeometry x="80" width="150" height="40" as="geometry">
            <mxRectangle width="150" height="40" as="alternateBounds" />
          </mxGeometry>
        </mxCell>
        <mxCell id="IbHiwmiNJRmiyXheCo9D-58" value="" style="shape=tableRow;horizontal=0;startSize=0;swimlaneHead=0;swimlaneBody=0;top=0;left=0;bottom=0;right=0;collapsible=0;dropTarget=0;fillColor=none;points=[[0,0.5],[1,0.5]];portConstraint=eastwest;strokeColor=inherit;fontSize=16;" vertex="1" parent="IbHiwmiNJRmiyXheCo9D-54">
          <mxGeometry y="70" width="230" height="40" as="geometry" />
        </mxCell>
        <mxCell id="IbHiwmiNJRmiyXheCo9D-59" value="description" style="shape=partialRectangle;html=1;whiteSpace=wrap;connectable=0;fillColor=none;top=0;left=0;bottom=0;right=0;overflow=hidden;strokeColor=inherit;fontSize=16;" vertex="1" parent="IbHiwmiNJRmiyXheCo9D-58">
          <mxGeometry width="80" height="40" as="geometry">
            <mxRectangle width="80" height="40" as="alternateBounds" />
          </mxGeometry>
        </mxCell>
        <mxCell id="IbHiwmiNJRmiyXheCo9D-60" value="String" style="shape=partialRectangle;html=1;whiteSpace=wrap;connectable=0;fillColor=none;top=0;left=0;bottom=0;right=0;align=left;spacingLeft=6;overflow=hidden;strokeColor=inherit;fontSize=16;" vertex="1" parent="IbHiwmiNJRmiyXheCo9D-58">
          <mxGeometry x="80" width="150" height="40" as="geometry">
            <mxRectangle width="150" height="40" as="alternateBounds" />
          </mxGeometry>
        </mxCell>
        <mxCell id="IbHiwmiNJRmiyXheCo9D-61" value="" style="shape=tableRow;horizontal=0;startSize=0;swimlaneHead=0;swimlaneBody=0;top=0;left=0;bottom=0;right=0;collapsible=0;dropTarget=0;fillColor=none;points=[[0,0.5],[1,0.5]];portConstraint=eastwest;strokeColor=inherit;fontSize=16;" vertex="1" parent="IbHiwmiNJRmiyXheCo9D-54">
          <mxGeometry y="110" width="230" height="140" as="geometry" />
        </mxCell>
        <mxCell id="IbHiwmiNJRmiyXheCo9D-62" value="direction&lt;br&gt;&lt;br&gt;items&lt;br&gt;&lt;br&gt;characters" style="shape=partialRectangle;html=1;whiteSpace=wrap;connectable=0;fillColor=none;top=0;left=0;bottom=0;right=0;overflow=hidden;strokeColor=inherit;fontSize=16;" vertex="1" parent="IbHiwmiNJRmiyXheCo9D-61">
          <mxGeometry width="80" height="140" as="geometry">
            <mxRectangle width="80" height="140" as="alternateBounds" />
          </mxGeometry>
        </mxCell>
        <mxCell id="IbHiwmiNJRmiyXheCo9D-63" value="Direction[ ]&lt;br&gt;&lt;br&gt;Item[ ]&lt;br&gt;&lt;br&gt;Character [ ]" style="shape=partialRectangle;html=1;whiteSpace=wrap;connectable=0;fillColor=none;top=0;left=0;bottom=0;right=0;align=left;spacingLeft=6;overflow=hidden;strokeColor=inherit;fontSize=16;" vertex="1" parent="IbHiwmiNJRmiyXheCo9D-61">
          <mxGeometry x="80" width="150" height="140" as="geometry">
            <mxRectangle width="150" height="140" as="alternateBounds" />
          </mxGeometry>
        </mxCell>
        <mxCell id="IbHiwmiNJRmiyXheCo9D-64" style="edgeStyle=orthogonalEdgeStyle;rounded=0;orthogonalLoop=1;jettySize=auto;html=1;exitX=1;exitY=0.5;exitDx=0;exitDy=0;" edge="1" parent="IbHiwmiNJRmiyXheCo9D-54" source="IbHiwmiNJRmiyXheCo9D-58" target="IbHiwmiNJRmiyXheCo9D-58">
          <mxGeometry relative="1" as="geometry" />
        </mxCell>
      </root>
    </mxGraphModel>
  </diagram>
</mxfile>
